<svg xmlns="http://www.w3.org/2000/svg" viewBox="0 0 1200 760"><defs><linearGradient id="bg" x1="0" y1="0" x2="1" y2="1"><stop stop-color="#05070b"/><stop offset="1" stop-color="#111827"/></linearGradient><linearGradient id="a" x1="0" y1="0" x2="1" y2="1"><stop stop-color="#ff3b30"/><stop offset="1" stop-color="#ff9f0a"/></linearGradient><linearGradient id="b" x1="0" y1="0" x2="1" y2="1"><stop stop-color="#0a84ff"/><stop offset="1" stop-color="#5e5ce6"/></linearGradient><linearGradient id="c" x1="0" y1="0" x2="1" y2="1"><stop stop-color="#30d158"/><stop offset="1" stop-color="#64d2ff"/></linearGradient><filter id="glow"><feGaussianBlur stdDeviation="10" result="b"/><feMerge><feMergeNode in="b"/><feMergeNode in="SourceGraphic"/></feMerge></filter></defs><rect width="1200" height="760" rx="28" fill="url(#bg)"/><text x="55" y="58" fill="#fff" font-family="Arial,sans-serif" font-size="28" font-weight="800" letter-spacing="3">WORKOUT VISUAL GUIDE</text><text x="55" y="88" fill="#9ca3af" font-family="Arial,sans-serif" font-size="15">A premium visual overview of your training split</text><rect x="35" y="115" width="360" height="285" rx="22" fill="#0b0f17" stroke="url(#a)" stroke-width="2"/><rect x="35" y="115" width="360" height="58" rx="22" fill="url(#a)" opacity=".22"/><text x="57" y="142" fill="#fff" font-family="Arial" font-size="13" font-weight="700">DAY 1</text><text x="57" y="164" fill="#fff" font-family="Arial" font-size="20" font-weight="900">CHEST + TRICEPS</text><rect x="420" y="115" width="360" height="285" rx="22" fill="#0b0f17" stroke="url(#b)" stroke-width="2"/><rect x="420" y="115" width="360" height="58" rx="22" fill="url(#b)" opacity=".22"/><text x="442" y="142" fill="#fff" font-family="Arial" font-size="13" font-weight="700">DAY 2</text><text x="442" y="164" fill="#fff" font-family="Arial" font-size="20" font-weight="900">BACK + BICEPS</text><rect x="805" y="115" width="360" height="285" rx="22" fill="#0b0f17" stroke="url(#c)" stroke-width="2"/><rect x="805" y="115" width="360" height="58" rx="22" fill="url(#c)" opacity=".22"/><text x="827" y="142" fill="#fff" font-family="Arial" font-size="13" font-weight="700">DAY 3</text><text x="827" y="164" fill="#fff" font-family="Arial" font-size="20" font-weight="900">LEGS</text><rect x="225" y="430" width="360" height="285" rx="22" fill="#0b0f17" stroke="url(#a)" stroke-width="2"/><rect x="225" y="430" width="360" height="58" rx="22" fill="url(#a)" opacity=".22"/><text x="247" y="457" fill="#fff" font-family="Arial" font-size="13" font-weight="700">DAY 4</text><text x="247" y="479" fill="#fff" font-family="Arial" font-size="20" font-weight="900">SHOULDERS</text><rect x="615" y="430" width="360" height="285" rx="22" fill="#0b0f17" stroke="url(#b)" stroke-width="2"/><rect x="615" y="430" width="360" height="58" rx="22" fill="url(#b)" opacity=".22"/><text x="637" y="457" fill="#fff" font-family="Arial" font-size="13" font-weight="700">DAY 5</text><text x="637" y="479" fill="#fff" font-family="Arial" font-size="20" font-weight="900">ARMS</text><g fill="#cbd5e1" stroke="#9ca3af" stroke-width="7" stroke-linecap="round"><circle cx="215" cy="235" r="20"/><path d="M190 265 Q215 245 240 265 L250 320 L215 345 L180 320 Z"/><path d="M188 275 L155 315 M242 275 L275 315 M200 335 L185 375 M230 335 L245 375"/><circle cx="600" cy="235" r="20"/><path d="M575 265 Q600 245 625 265 L635 320 L600 345 L565 320 Z"/><path d="M573 275 L540 315 M627 275 L660 315 M585 335 L570 375 M615 335 L630 375"/><circle cx="985" cy="235" r="20"/><path d="M960 265 Q985 245 1010 265 L1020 320 L985 345 L950 320 Z"/><path d="M958 275 L925 315 M1012 275 L1045 315 M970 335 L955 375 M1000 335 L1015 375"/><circle cx="405" cy="550" r="20"/><path d="M380 580 Q405 560 430 580 L440 635 L405 660 L370 635 Z"/><path d="M378 590 L345 630 M432 590 L465 630 M390 650 L375 690 M420 650 L435 690"/><circle cx="795" cy="550" r="20"/><path d="M770 580 Q795 560 820 580 L830 635 L795 660 L760 635 Z"/><path d="M768 590 L735 630 M822 590 L855 630 M780 650 L765 690 M810 650 L825 690"/></g><g fill="#ff6b35" filter="url(#glow)"><circle cx="190" cy="275" r="7"/><circle cx="240" cy="275" r="7"/><circle cx="575" cy="275" r="7"/><circle cx="625" cy="275" r="7"/><circle cx="960" cy="275" r="7"/><circle cx="1010" cy="275" r="7"/><circle cx="380" cy="590" r="7"/><circle cx="430" cy="590" r="7"/><circle cx="770" cy="590" r="7"/><circle cx="820" cy="590" r="7"/></g><g fill="#e5e7eb" font-family="Arial" font-size="11" font-weight="700"><text x="57" y="365">BENCH PRESS</text><text x="57" y="385">INCLINE PRESS</text><text x="205" y="365">CHEST FLY</text><text x="205" y="385">TRICEP PUSHDOWN</text><text x="442" y="365">LAT PULLDOWN</text><text x="442" y="385">CABLE ROW</text><text x="590" y="365">BARBELL CURL</text><text x="590" y="385">HAMMER CURL</text><text x="827" y="365">SQUAT</text><text x="827" y="385">LEG PRESS</text><text x="975" y="365">LEG CURL</text><text x="975" y="385">CALF RAISE</text><text x="247" y="680">SHOULDER PRESS</text><text x="247" y="700">LATERAL RAISE</text><text x="397" y="680">FRONT RAISE</text><text x="397" y="700">REVERSE FLY</text><text x="637" y="680">BARBELL CURL</text><text x="637" y="700">HAMMER CURL</text><text x="787" y="680">PREACHER CURL</text><text x="787" y="700">OVERHEAD EXTENSION</text></g><g fill="#9ca3af" font-family="Arial" font-size="10"><text x="315" y="365">3 × 10–12</text><text x="315" y="385">3 × 10–12</text><text x="700" y="365">3 × 10–12</text><text x="700" y="385">3 × 10–12</text><text x="1085" y="365">3 × 10–12</text><text x="1085" y="385">3 × 10–12</text></g></svg>